<svg xmlns="http://www.w3.org/2000/svg" width="136.992" height="44.058" viewBox="0 0 796 256">
  <defs>
    <style>
      .cls-1 {
        fill: #fff;
        fill-rule: evenodd;
      }
    </style>
  </defs>
  <path id="PREMIER" class="cls-1" d="M50.3,3.9H5.5V142.5H38.3V96.3h15q25,0,39.9-11.9t14.9-35.3q0-22.4-15.2-33.8T50.3,3.9h0Zm0.2,69.2H38.3v-46H49.9q24.4,0,24.4,22.087,0,12.769-6.1,18.341T50.5,73.1h0Zm149.6,69.4h37l-35.2-59q13.8-6.2,20.2-15.1t6.4-22.3q0-21.4-14.3-31.8T171.5,3.9H126.1V142.5h32.8v-53h12.8ZM158.9,26.9h11.8q12.2,0,18.1,4.6t5.9,14.6q0,10.8-5.5,15.8t-16.5,5H158.9v-40Zm175.6-23h-85V142.5h85V119.3H282.3V83.5h42.6V60.3H282.3V27.1h48.8Zm147.4,0h-41.6l-19.4,94-20.8-94h-41.4l-10.4,138.6h32l2.4-53.8q0.6-12.6.6-24.2,0-15.4-1.2-32.8l22.8,96.2h31l21.4-96.2q-0.6,10.4-.6,22,0,15.2,1,34.6l2.4,54.2h32.2Zm62.8,0h-32.8V142.5h32.8V3.9Zm110.8,0h-85V142.5h85V119.3h-52.2V83.5h42.6V60.3h-42.6V27.1h48.8Zm94.2,138.6h37l-35.2-59q13.8-6.2,20.2-15.1t6.4-22.3q0-21.4-14.3-31.8T721.09,3.9h-45.4V142.5h32.8v-53h12.8ZM708.49,26.9h11.8q12.2,0,18.1,4.6t5.9,14.6q0,10.8-5.5,15.8t-16.5,5h-13.8v-40Z"/>
  <path id="market" class="cls-1" d="M385.5,178.874a23.19,23.19,0,0,0-11.063,2.563,26.966,26.966,0,0,0-8.812,7.937,16.467,16.467,0,0,0-6.063-7.75,16.659,16.659,0,0,0-9.562-2.75,22.29,22.29,0,0,0-10.75,2.563,26.318,26.318,0,0,0-8.5,7.562l-1.5-7.875H312.125V247.5h19.75v-45.48a23.2,23.2,0,0,1,4.687-6.451A7.942,7.942,0,0,1,342,193.374q5.625,0,5.625,8.9V247.5h19.75v-45.48A22.583,22.583,0,0,1,372,195.505a7.985,7.985,0,0,1,5.5-2.131q5.5,0,5.5,8.9V247.5h19.75V198.911q0-9.392-4.75-14.714a15.957,15.957,0,0,0-12.5-5.323h0Zm84.623,50.43V202.937q0-12.03-6.625-18.047t-20.875-6.016a64.911,64.911,0,0,0-12.187,1.262,75.507,75.507,0,0,0-12.813,3.656l4.5,13.082a81.119,81.119,0,0,1,9.5-2.562,40.652,40.652,0,0,1,7.875-.938q6.249,0,8.75,2.209t2.5,8.139v2.9H444q-15.126,0-23.125,5.8t-8,16.77q0,9.33,5.875,15.13t15.75,5.8q13.5,0,20-9.625a14.355,14.355,0,0,0,6,6.938,24.352,24.352,0,0,0,10,2.687l4.125-12.5a6.445,6.445,0,0,1-3.437-2.687,11.433,11.433,0,0,1-1.063-5.633h0Zm-29.875,7.445a7.1,7.1,0,0,1-5.687-2.4,10.093,10.093,0,0,1-2.063-6.785q0-5.482,3.313-8.086t10.062-2.606h4.875v12.885q-3.75,6.99-10.5,6.99h0Zm81.5-57.875A14.97,14.97,0,0,0,511.434,183a24.9,24.9,0,0,0-6.812,11l-1.75-12.875H485.747V247.5H505.5V216.077q1.875-7.529,4.937-11.179t8.813-3.649a27.978,27.978,0,0,1,6,.875l3.125-22.226a21.171,21.171,0,0,0-6.625-1.024h0ZM555.5,152.5l-19.75,2.25V247.5H555.5v-95Zm41,28.625H576.371l-20.25,30.125,19.75,36.25h22.25l-21.75-37.25Zm64.751,32.061q0-16.146-8.125-25.229t-22.5-9.082a29.2,29.2,0,0,0-16.75,4.729,29.75,29.75,0,0,0-10.625,12.863,44.6,44.6,0,0,0-3.625,18.348q0,16.141,8.625,25.726T633,250.124a40.327,40.327,0,0,0,25.875-9.33l-8.125-11.045a39.9,39.9,0,0,1-8.125,4.438,21.462,21.462,0,0,1-7.75,1.437q-6.627,0-10.375-3.4t-4.75-11.848h41.125a59.438,59.438,0,0,0,.375-7.189h0ZM641.872,208.5H619.747q0.624-8.69,3.438-12.47a9.312,9.312,0,0,1,7.937-3.78q10.5,0,10.75,15.369V208.5Zm65.748,25a14.5,14.5,0,0,1-7.125,2.125,5.43,5.43,0,0,1-4.75-2.1q-1.5-2.1-1.5-6.965V194.5H707.37l2.125-13.375h-15.25V164.5l-19.75,2.25v14.375H665.12V194.5H674.5v31.242q0,24.258,21.75,24.383a37.269,37.269,0,0,0,9.563-1.275,29.749,29.749,0,0,0,8.437-3.6Z"/>
  <path id="_." data-name="." class="cls-1" d="M756.5,208a22.07,22.07,0,0,0-16.125,6.555,21.292,21.292,0,0,0-6.625,15.695,21.581,21.581,0,0,0,6.625,15.95,22.081,22.081,0,0,0,16.125,6.55,22.491,22.491,0,0,0,22.5-22.5,21.307,21.307,0,0,0-6.625-15.695A21.79,21.79,0,0,0,756.5,208h0Z"/>
</svg>
